<?xml version="1.0" encoding="utf-8"?>
<!-- Generator: Adobe Illustrator 21.1.0, SVG Export Plug-In . SVG Version: 6.00 Build 0)  -->
<svg version="1.1" id="Layer_1" xmlns="http://www.w3.org/2000/svg" xmlns:xlink="http://www.w3.org/1999/xlink" x="0px" y="0px"
	 viewBox="0 0 394.3 294.8" style="enable-background:new 0 0 394.3 294.8;" xml:space="preserve">
<style type="text/css">
	.st0{fill:#E7E9EE;}
	.st1{fill:#EE3244;}
	.st2{fill:#CC3645;}
	.st3{fill:none;stroke:#494949;stroke-width:3;stroke-linecap:round;stroke-linejoin:round;}
	.st4{fill:#494949;}
	.st5{opacity:0.2;}
	.st6{fill:url(#SVGID_1_);}
	.st7{fill:url(#SVGID_2_);}
	.st8{opacity:0.5;}
	.st9{fill:none;stroke:#EE3244;stroke-width:3;stroke-linecap:round;stroke-linejoin:round;}
	.st10{opacity:0.3;}
	.st11{fill:none;stroke:#EE3244;stroke-width:2;stroke-linecap:round;stroke-linejoin:round;}
	.st12{opacity:0.9;}
	.st13{fill:none;stroke:#DCDCDC;stroke-width:3;stroke-miterlimit:10;}
	.st14{fill:none;stroke:#DCDCDC;stroke-width:2;stroke-miterlimit:10;}
	.st15{fill:none;stroke:#DCDCDC;stroke-width:3;stroke-linecap:round;stroke-linejoin:round;}
	.st16{fill:none;stroke:#FFFFFF;stroke-width:4;stroke-linecap:round;stroke-linejoin:round;}
	.st17{fill:none;}
</style>
<title>no-movies</title>
<path class="st0" d="M250,228.5H146.7c-8.5,0-15.3-6.8-15.4-15.3v10.5c0,8.4,6.8,12.3,15.3,12.3h102.5c8.4,0,15.3-3.8,15.3-12.3
	v-5.1C262.1,224.6,256.4,228.5,250,228.5z"/>
<rect x="131.4" y="140" class="st1" width="133" height="27"/>
<rect x="131.4" y="159" class="st2" width="133" height="8"/>
<path class="st1" d="M260.8,98.1l-128.6,32.5l0,0l-2.9-11.5c-2.1-8.2,2.9-16.5,11.1-18.6l0,0l98.9-25c8.2-2.1,16.5,2.9,18.6,11.1
	c0,0,0,0,0,0L260.8,98.1L260.8,98.1L260.8,98.1z"/>
<path class="st2" d="M258.8,90.1l-128.6,32.5l-1-3.9c0,0.1,0,0.2,0.1,0.4l2.9,11.5l128.6-32.5L258.8,90.1z"/>
<path class="st3" d="M131.4,156.4V140h133v80.7c0,8.4-6.8,15.3-15.3,15.3h0H146.6c-8.4,0-15.3-6.8-15.3-15.3v-25"/>
<line class="st3" x1="131.4" y1="184.8" x2="131.4" y2="166.5"/>
<path class="st3" d="M260.8,97.9l-129,32.6l0,0l-2.9-11.4c-2.1-8.2,2.9-16.5,11.1-18.5l99.4-25.1c8.2-2.1,16.5,2.9,18.5,11.1
	c0,0,0,0,0,0L260.8,97.9L260.8,97.9z"/>
<line class="st3" x1="223.9" y1="140.5" x2="240.9" y2="166.5"/>
<line class="st3" x1="188.9" y1="140.5" x2="205.9" y2="166.5"/>
<line class="st3" x1="188.2" y1="115.7" x2="195.9" y2="86.5"/>
<line class="st3" x1="154.2" y1="124.7" x2="161.9" y2="95.5"/>
<line class="st3" x1="223.5" y1="106.3" x2="230.9" y2="78.5"/>
<line class="st3" x1="153.9" y1="140.5" x2="170.9" y2="166.5"/>
<line class="st3" x1="263.9" y1="166.5" x2="131.9" y2="166.5"/>
<circle class="st4" cx="179.3" cy="188" r="5.5"/>
<circle class="st4" cx="211.9" cy="188" r="5.5"/>
<ellipse class="st4" cx="196.6" cy="207.9" rx="9.5" ry="6.1"/>
<path class="st0" d="M187.6,209.8c1.3,2.4,4.8,4.2,9,4.2s7.8-1.8,9-4.2c-1.3-2.4-4.8-4.2-9-4.2S188.9,207.4,187.6,209.8z"/>
<g class="st5">
	
		<radialGradient id="SVGID_1_" cx="231.85" cy="98" r="9.49" gradientTransform="matrix(1 0 0 -1 0 296)" gradientUnits="userSpaceOnUse">
		<stop  offset="0.12" style="stop-color:#000000"/>
		<stop  offset="1" style="stop-color:#000000;stop-opacity:0"/>
	</radialGradient>
	<circle class="st6" cx="231.9" cy="198" r="9.5"/>
	
		<radialGradient id="SVGID_2_" cx="158.63" cy="98.7" r="9.49" gradientTransform="matrix(1 0 0 -1 0 296)" gradientUnits="userSpaceOnUse">
		<stop  offset="0.12" style="stop-color:#000000"/>
		<stop  offset="1" style="stop-color:#000000;stop-opacity:0"/>
	</radialGradient>
	<circle class="st7" cx="158.6" cy="197.3" r="9.5"/>
</g>
<ellipse class="st0" cx="197.9" cy="278" rx="86.5" ry="5"/>
<g class="st8">
	<polyline class="st9" points="350.6,68 340.6,68 340.6,58 	"/>
	<polyline class="st9" points="331.5,58 331.5,68 321.5,68 	"/>
	<polyline class="st9" points="350.6,76.3 340.6,76.3 340.6,86.3 	"/>
	<polyline class="st9" points="331.5,86.3 331.5,76.3 321.5,76.3 	"/>
</g>
<g class="st8">
	<polyline class="st9" points="317.4,93.2 308.9,93.2 308.9,84.7 	"/>
	<polyline class="st9" points="301.2,84.7 301.2,93.2 292.8,93.2 	"/>
	<polyline class="st9" points="317.4,100.2 308.9,100.2 308.9,108.6 	"/>
	<polyline class="st9" points="301.2,108.6 301.2,100.2 292.8,100.2 	"/>
</g>
<g class="st10">
	<polyline class="st11" points="289.3,114.1 282.2,114.1 282.2,107 	"/>
	<polyline class="st11" points="275.7,107 275.7,114.1 268.6,114.1 	"/>
	<polyline class="st11" points="289.3,120 282.2,120 282.2,127.2 	"/>
	<polyline class="st11" points="275.7,127.2 275.7,120 268.6,120 	"/>
</g>
<g class="st12">
	<circle class="st1" cx="103.1" cy="152.8" r="4.2"/>
	<circle class="st1" cx="281" cy="146.7" r="1.7"/>
	<circle class="st1" cx="195.1" cy="61.6" r="2.9"/>
	<circle class="st1" cx="184.7" cy="27.9" r="2.9"/>
	<circle class="st1" cx="143.8" cy="77.5" r="4.2"/>
	<path class="st1" d="M224,33c0-0.6,0.1-1.1,0.2-1.7h-5.7c-0.9-0.1-1.7,0.6-1.8,1.5c-0.1,0.9,0.6,1.7,1.5,1.8c0.1,0,0.2,0,0.3,0h5.7
		C224.1,34.1,224,33.6,224,33z"/>
	<path class="st1" d="M229.8,27.1c0.6,0,1.1,0.1,1.7,0.2v-5.6c0.1-0.9-0.6-1.7-1.5-1.8c-0.9-0.1-1.7,0.6-1.8,1.5c0,0.1,0,0.2,0,0.3
		v5.7C228.7,27.2,229.2,27.1,229.8,27.1z"/>
	<path class="st1" d="M234.9,30.2l4-4c0.7-0.6,0.7-1.7,0.1-2.4c-0.6-0.7-1.7-0.7-2.4-0.1c0,0-0.1,0.1-0.1,0.1l-4,4
		C233.6,28.4,234.4,29.2,234.9,30.2z"/>
	<path class="st1" d="M224.7,30.2c0.5-1,1.3-1.8,2.3-2.4l-4-4c-0.6-0.7-1.7-0.7-2.4-0.1c-0.7,0.6-0.7,1.7-0.1,2.4
		c0,0,0.1,0.1,0.1,0.1L224.7,30.2z"/>
	<path class="st1" d="M234.9,35.7c-0.5,1-1.4,1.8-2.4,2.4l4,4c0.7,0.6,1.7,0.6,2.4-0.1c0.6-0.6,0.6-1.6,0-2.3L234.9,35.7z"/>
	<path class="st1" d="M241.1,31.3h-5.7c0.3,1.1,0.3,2.2,0,3.3h5.7c0.9-0.1,1.6-0.9,1.5-1.8C242.5,32,241.9,31.4,241.1,31.3z"/>
	<path class="st1" d="M229.8,38.8c-0.6,0-1.1-0.1-1.7-0.2v5.7c-0.1,0.9,0.6,1.7,1.5,1.8c0.9,0.1,1.7-0.6,1.8-1.5c0-0.1,0-0.2,0-0.3
		v-5.7C230.9,38.7,230.4,38.8,229.8,38.8z"/>
	<path class="st1" d="M224.7,35.7l-4,4c-0.7,0.6-0.9,1.6-0.3,2.3c0.6,0.7,1.6,0.9,2.3,0.3c0.1-0.1,0.2-0.2,0.3-0.3l4-4
		C226,37.6,225.2,36.7,224.7,35.7z"/>
	<path class="st1" d="M111.4,70c0-0.5,0.1-0.9,0.2-1.4h-4.7c-0.8,0-1.4,0.6-1.4,1.4c0,0.8,0.6,1.4,1.4,1.4h4.7
		C111.4,70.9,111.4,70.5,111.4,70z"/>
	<path class="st1" d="M116.2,65.2c0.5,0,0.9,0.1,1.4,0.2v-4.7c0-0.8-0.6-1.4-1.4-1.4c-0.8,0-1.4,0.6-1.4,1.4v4.7
		C115.3,65.3,115.7,65.2,116.2,65.2z"/>
	<path class="st1" d="M120.4,67.7l3.3-3.3c0.5-0.5,0.5-1.4,0-1.9c-0.5-0.5-1.4-0.5-1.9,0l0,0l-3.3,3.3
		C119.3,66.2,120,66.9,120.4,67.7z"/>
	<path class="st1" d="M112,67.7c0.4-0.8,1.1-1.5,1.9-1.9l-3.3-3.3c-0.5-0.5-1.4-0.5-1.9,0s-0.5,1.4,0,1.9L112,67.7z"/>
	<path class="st1" d="M120.4,72.3c-0.4,0.8-1.1,1.5-1.9,1.9l3.3,3.3c0.5,0.5,1.4,0.5,1.9,0s0.5-1.4,0-1.9L120.4,72.3z"/>
	<path class="st1" d="M125.4,68.6h-4.7c0.3,0.9,0.3,1.8,0,2.7h4.7c0.8,0,1.4-0.6,1.4-1.4S126.2,68.6,125.4,68.6
		C125.4,68.6,125.4,68.6,125.4,68.6z"/>
	<path class="st1" d="M116.2,74.8c-0.5,0-0.9-0.1-1.4-0.2v4.7c0,0.8,0.6,1.4,1.4,1.4c0.8,0,1.4-0.6,1.4-1.4v-4.7
		C117.1,74.7,116.6,74.8,116.2,74.8z"/>
	<path class="st1" d="M112,72.3l-3.3,3.3c-0.5,0.5-0.5,1.4,0,1.9s1.4,0.5,1.9,0l3.3-3.3C113.1,73.8,112.4,73.1,112,72.3z"/>
</g>
<circle class="st13" cx="105.6" cy="106.2" r="2.9"/>
<circle class="st14" cx="267.6" cy="32.8" r="3.3"/>
<circle class="st13" cx="167.1" cy="53.9" r="4.2"/>
<line class="st15" x1="316.8" y1="134.2" x2="323" y2="140.4"/>
<line class="st15" x1="316.8" y1="140.4" x2="323" y2="134.2"/>
<line class="st15" x1="220.1" y1="57.7" x2="226.4" y2="63.9"/>
<line class="st15" x1="220.1" y1="63.9" x2="226.4" y2="57.7"/>
<g class="st8">
	<line class="st16" x1="235.9" y1="85.2" x2="243.3" y2="83.2"/>
	<line class="st16" x1="200.2" y1="94.4" x2="221.8" y2="88.9"/>
</g>
<g class="st8">
	<line class="st16" x1="236.1" y1="146.4" x2="243.8" y2="146.2"/>
	<line class="st16" x1="199.2" y1="146.8" x2="221.5" y2="146.6"/>
	<line class="st16" x1="164.2" y1="147" x2="184.2" y2="146.9"/>
</g>
<rect class="st17" width="394.3" height="294.8"/>
</svg>
